<svg width="1395" height="815" viewBox="0 0 1395 815" fill="none" xmlns="http://www.w3.org/2000/svg">
<path d="M1083.6 591.076C1086.5 588.682 1089.43 586.332 1092.29 583.883C1110.08 568.608 1129.91 557.237 1151.67 549.63C1162.67 545.786 1173.83 542.481 1184.88 538.814C1190.76 536.864 1196.63 534.848 1202.38 532.537C1209.31 529.754 1216.04 526.5 1221.57 521.077C1222.11 520.554 1222.75 520.119 1223.4 519.765C1224.59 519.112 1225.92 519.07 1226.8 520.125C1227.56 521.022 1228.42 522.374 1228.3 523.402C1228.05 525.41 1227.3 527.397 1226.52 529.285C1222.47 539.186 1216.44 547.695 1209.5 555.53C1202.07 563.908 1193.73 571.219 1185.27 578.403C1174.84 587.259 1165.52 597.214 1158.26 609.169C1154.24 615.789 1151.09 622.816 1149.5 630.495C1148.81 633.755 1148.41 637.173 1148.49 640.503C1148.62 646.63 1151.54 650.042 1157.22 651.281C1164.5 652.867 1171.07 650.96 1176.5 645.853C1180.32 642.243 1183.89 638.16 1186.89 633.76C1191.19 627.42 1195.13 620.825 1198.7 614.007C1203.58 604.693 1207.96 595.086 1212.57 585.615C1220.23 569.87 1228.62 554.596 1239.4 540.937C1260.02 514.834 1284.73 494.047 1313.37 478.451C1325.04 472.095 1337.5 467.964 1350.03 463.966C1357.34 461.632 1364.7 459.435 1371.94 456.872C1377.6 454.871 1383.36 453.838 1389.25 453.035C1395.84 452.139 1402.37 450.697 1408.91 449.459C1409.63 449.324 1410.33 449.012 1411.01 448.693C1412.19 448.138 1413.35 447.23 1412.88 445.803C1412.53 444.717 1411.57 443.534 1410.59 443.082C1409.58 442.62 1408.2 442.814 1407.03 443.032C1401.2 444.102 1395.39 445.242 1389.59 446.453C1386.64 447.071 1384.43 446.302 1382.37 443.866C1372.27 431.92 1369.85 418.382 1374.35 403.278C1376.76 395.203 1381.11 388.302 1386.09 381.808C1398.74 365.325 1414.07 352.623 1432.97 344.931C1440.8 341.751 1448.58 338.484 1456.32 335.074C1461.55 332.772 1466.73 330.323 1471.78 327.632C1480.6 322.943 1486.07 315.09 1489.73 305.688C1491.75 300.482 1491.87 295.118 1490.89 289.618C1489.84 283.759 1489.1 277.845 1488.08 271.981C1486.71 264.041 1488.14 256.522 1490.81 249.131C1494.13 240.007 1499.2 232.1 1505.74 225.221C1517.85 212.462 1531.32 201.635 1546.66 193.441C1554.58 189.212 1562.45 184.867 1570.22 180.36C1584.12 172.311 1596.85 162.469 1608.9 151.696C1620.3 141.511 1629.4 129.26 1636.96 115.734C1638.45 113.065 1639.32 110.02 1640.74 107.303C1641.55 105.777 1642.75 104.389 1644.03 103.272C1645.36 102.104 1647.76 103.147 1648.22 104.914C1648.47 105.908 1648.61 106.943 1648.72 107.965C1650.75 124.581 1650.54 141.143 1646.81 157.472C1641.88 178.945 1631.36 197.244 1617.04 213.165C1611.1 219.761 1604.8 225.996 1598.64 232.367C1592.27 238.939 1586.46 245.999 1581.61 253.873C1580.01 256.477 1578.4 259.139 1577.21 261.962C1572.78 272.396 1572.87 282.466 1579.29 292.224C1584.34 299.903 1589.11 307.798 1593.71 315.788C1598.33 323.808 1601.83 332.373 1603.99 341.53C1607.42 356.021 1607.07 370.305 1602.25 384.414C1593.56 409.818 1578.14 429.446 1556.29 443.474C1553.38 445.341 1550.09 446.706 1546.8 447.709C1529.51 452.987 1512.08 457.648 1494.23 460.39C1491.57 460.798 1488.93 461.533 1486.37 462.418C1485.7 462.65 1484.96 464.069 1485.04 464.843C1485.14 465.621 1486.18 466.834 1486.87 466.89C1489.79 467.141 1492.81 467.495 1495.66 466.967C1505.12 465.197 1514.55 463.222 1523.93 461.045C1530.43 459.547 1536.83 457.641 1543.27 455.842C1545.68 455.166 1547.73 455.636 1549.23 457.713C1551.17 460.38 1553.37 462.96 1554.71 465.947C1560.74 479.415 1561.91 493.27 1557.21 507.543C1553.85 517.76 1548.86 526.88 1541.79 534.742C1534.98 542.315 1527.59 549.207 1519.5 555.186C1502.73 567.56 1485.83 579.73 1469.04 592.086C1461.36 597.74 1453.73 603.477 1446.28 609.456C1439.39 614.975 1433.14 621.267 1427.43 628.122C1422.85 633.616 1419.01 639.627 1416.05 646.259C1413.68 651.567 1413.11 657.129 1413.2 662.938C1413.29 669.509 1420.12 676.332 1427.55 675.427C1430.45 675.075 1433.39 674.253 1436.11 673.1C1448.78 667.741 1460.6 660.746 1470.81 651.116C1474.64 647.497 1477.92 643.218 1481.39 639.195C1482.55 637.852 1483.47 636.276 1484.65 634.951C1487.09 632.198 1490.27 632.791 1491.71 636.353C1492.48 638.265 1493.01 640.27 1493.3 642.322C1495.48 657.842 1492.45 672.255 1484.68 685.587C1479.22 694.982 1472.38 703.139 1464.02 709.79C1459.3 713.546 1454.37 717.001 1449.49 720.524C1443.38 724.929 1437.16 729.148 1431.13 733.659C1425.87 737.577 1421.41 742.564 1418.02 748.326C1414.98 753.47 1413.05 758.973 1412.66 765.115C1412.16 773.16 1410.56 781.02 1408.44 788.779C1407.19 793.364 1405.19 797.526 1402.18 801.018C1398.72 805.055 1394.95 808.807 1391.27 812.642C1388.87 815.147 1385.92 816.107 1382.54 816.158C1369.45 816.348 1356.38 816.791 1343.3 816.902C1317.87 817.113 1292.44 817.125 1267.02 817.288C1231.23 817.512 1195.44 817.785 1159.64 818.054C1124.35 818.318 1089.05 818.595 1053.76 818.883C1019.2 819.163 984.642 819.469 950.083 819.736C917.995 819.986 885.905 820.187 853.817 820.438C815.309 820.739 776.805 821.074 738.297 821.379C702.508 821.66 666.714 821.916 630.922 822.193C595.87 822.468 560.822 822.766 525.769 823.037C490.473 823.306 455.172 823.544 419.876 823.812C384.083 824.085 348.294 824.371 312.501 824.657C277.946 824.938 243.386 825.24 208.831 825.507C176.493 825.755 144.16 825.945 111.827 826.188C72.5775 826.486 33.3335 826.784 -5.91546 827.135C-34.0509 827.387 -62.1901 827.737 -90.3265 827.998C-93.2885 828.021 -96.2494 827.869 -99.1952 827.542C-100.658 827.375 -102.071 826.892 -103.349 826.124C-106.614 824.125 -106.907 819.402 -103.984 816.91C-103.038 816.106 -101.906 815.538 -100.838 814.909C-81.9332 803.727 -66.7862 788.431 -55.4635 768.975C-48.7534 757.445 -43.308 745.208 -37.8238 733.014C-35.8289 728.583 -34.5515 723.785 -33.0592 719.109C-18.3422 673.02 2.77026 630.338 28.7935 590.241C42.1625 569.638 56.0641 549.492 71.6043 530.611C86.3484 512.701 102.637 496.485 119.457 480.785C148.744 453.445 182.148 433.119 217.706 416.407C221.758 414.504 225.895 412.798 230.016 411.064C245.354 404.605 260.789 398.39 276.022 391.671C293.548 383.946 310.609 375.161 327.483 365.967C336.362 361.131 343.761 354.311 351.082 347.319C364.727 334.29 375.652 318.965 385.559 302.739C394.62 287.883 403.75 273.072 412.948 258.309C421.926 243.908 432.73 231.098 444.562 219.245C447.77 216.035 451.224 213.047 454.807 210.306C466.61 201.288 479.038 193.344 492.181 186.648C507.298 178.942 522.904 172.513 538.781 166.781C546.943 163.833 555.065 160.762 563.26 157.925C574.806 153.931 585.684 148.457 596.094 141.931C606.225 135.579 614.772 127.54 620.45 116.434C623.138 111.178 626.134 106.1 628.842 100.856C639.337 80.5207 653.294 63.1278 669.836 48.0422C686.336 32.9963 705.555 23.1976 726.479 16.9847C733.833 14.7966 741.312 13.0994 748.87 11.9015C755.682 10.8247 762.416 9.09399 769.096 7.29705C772.469 6.39144 774.852 7.54459 777.047 9.89468C778.176 11.1069 777.869 13.9572 776.411 14.6957C774.88 15.4709 773.23 16.1137 771.569 16.4468C748.943 20.9779 730.546 33.5555 714.03 49.7474C706.872 56.7661 701.689 65.2497 697.541 74.4647C692.561 85.5204 688.625 96.9123 686.486 109.027C684.643 119.481 681.973 129.768 678.395 139.744C673.552 153.247 666.129 165.133 657.653 176.387C648.31 188.794 636.931 198.61 623.701 206.016C614.995 210.886 606.08 215.341 597.254 219.968C588.645 224.482 579.987 228.891 571.43 233.512C565.011 236.976 559.406 241.664 554.388 247.1C552.843 248.77 551.443 250.593 550.025 252.389C543.917 260.15 542.061 268.925 544.556 278.656C546.56 286.444 547.232 294.543 546.542 302.577C545.365 316.559 539.934 327.985 528.348 335.624C525.634 337.414 522.843 339.081 520.086 340.8C515.629 343.57 511.077 346.191 506.734 349.15C503.807 351.146 500.804 352.694 497.471 353.848C487.067 357.448 477.497 362.785 469.19 370.37C466.787 372.565 464.719 375.186 462.617 377.719C462.004 378.455 461.498 379.566 461.493 380.509C461.488 381.396 462.051 382.445 462.662 383.117C463.07 383.565 464.234 383.874 464.666 383.587C467.149 381.931 469.701 380.299 471.878 378.247C476.884 373.533 482.43 369.708 488.34 366.421C489.207 365.94 490.135 365.579 491.063 365.229C492.095 364.84 492.342 365.71 492.385 366.422C493.498 385.25 486.23 400.293 472.998 412.304C467.412 417.373 461.199 421.699 455.142 426.166C447.058 432.124 438.758 437.76 431.389 444.731C423.992 451.728 417.667 459.651 412.557 468.626C410.389 472.435 408.61 476.409 408.582 481.014C408.558 485.04 410.572 488.074 414.326 488.897C416.206 489.31 418.253 489.377 420.157 489.099C425.082 488.388 429.685 486.468 434.185 484.317C459.335 472.289 479.46 454.086 494.576 429.772C497.546 424.99 500.476 420.175 503.221 415.253C516.098 392.17 532.549 372.329 551.874 354.984C562.598 345.359 573.569 336.144 585.689 328.522C586.95 327.728 588.176 326.667 589.55 326.341C590.562 326.099 592.152 326.497 592.814 327.257C593.486 328.031 593.599 329.628 593.456 330.803C593.35 331.721 592.578 332.63 591.931 333.375C590.934 334.522 589.835 335.581 588.702 336.582C579.118 345.033 571.873 355.514 565.222 366.495C560.276 374.662 556.794 383.535 554.614 392.92C552.394 402.49 550.464 412.137 548.433 421.76C546.666 430.144 544.27 438.303 540.891 446.135C537.177 454.739 532.073 462.315 525.942 469.186C519.59 476.303 512.052 481.584 503.621 485.547C495.74 489.25 487.841 492.917 480.015 496.748C477.343 498.055 474.788 499.675 472.343 501.405C471.175 502.234 470.187 503.544 469.507 504.86C469.121 505.608 469.199 507.047 469.659 507.733C470.11 508.402 471.458 508.998 472.163 508.77C474.737 507.93 477.238 506.814 479.701 505.656C483.975 503.644 488.197 501.509 492.455 499.454C492.861 499.26 493.487 499.064 493.779 499.257C494.071 499.449 494.283 500.192 494.176 500.586C490.464 514.297 486.679 527.981 482.961 541.691C478.598 557.794 469.589 570.446 457.037 580.485C450.133 586.004 442.838 590.946 434.819 594.375C428.916 596.9 422.713 598.808 416.499 600.367C397.507 605.125 378.337 608.626 358.692 608.213C356.532 608.17 354.339 608.719 352.204 609.216C351.688 609.335 351.068 610.302 351.014 610.926C350.963 611.547 351.42 612.437 351.925 612.831C352.682 613.423 353.651 613.928 354.573 614.035C358.483 614.494 362.368 614.922 366.353 614.803C380.714 614.372 394.832 612.091 408.853 609.067C411.732 608.445 413.65 609.287 415.4 611.332C418.127 614.506 419.784 618.171 420.032 622.522C420.368 628.347 419.517 633.876 416.985 639.132C414.284 644.748 410.96 649.917 406.543 654.135C400.7 659.715 394.616 665.014 388.612 670.406C384.669 673.942 380.604 677.333 376.733 680.957C371.542 685.815 366.945 691.26 363.533 697.657C360.404 703.529 359.079 709.731 361.467 716.348C363.11 720.9 365.698 724.682 370.053 726.536C373.215 727.882 376.594 729.278 379.938 729.463C402.672 730.722 422.804 723.798 439.605 707.32C445.288 701.746 449.34 694.843 451.92 687.183C454.714 678.878 457.007 670.388 459.477 661.966C461.512 655.027 463.255 647.985 465.543 641.141C471.264 624.045 480.168 608.891 491.357 595.139C511.809 570.008 537.191 551.973 565.338 537.866C580.719 532.213 593.867 522.554 606.449 512.041C612.029 507.38 616.942 501.834 622.139 496.67C623.213 495.603 624.142 494.377 625.258 493.367C626.269 492.451 628.317 492.522 629.455 493.336C630.581 494.141 630.923 495.351 630.924 496.702C630.924 497.215 630.912 497.756 630.769 498.244C627.217 510.652 624.322 523.297 618.086 534.69C611.909 545.972 605.053 556.711 596.818 566.474C592.563 571.519 588.507 576.761 584.558 582.073C576.257 593.249 572.197 606.104 570.911 620.138C570.298 626.835 569.173 633.495 567.978 640.113C565.325 654.793 558.749 667.394 549.104 678.271C547.251 680.359 545.288 682.334 543.422 684.409C543.122 684.743 543.054 685.314 542.881 685.777C543.316 685.88 543.815 686.172 544.18 686.049C546.518 685.241 548.925 684.552 551.127 683.435C562.516 677.653 573.087 670.545 582.597 661.727C601.912 643.824 615.611 621.956 624.417 596.591C631.439 576.362 638.356 556.092 645.526 535.923C652.181 517.206 659.064 498.575 668.051 480.906C674.815 467.603 682.489 454.91 691.005 442.779C704.063 424.176 720.069 408.896 738.585 396.512C746.079 391.502 753.601 386.483 761.414 382.073C767.047 378.894 770.56 374.285 772.488 368.171C773.647 364.491 774.493 360.684 775.234 356.878C780.942 327.705 793.51 302.172 812.343 280.071C823.641 266.81 836.751 255.875 852.098 248.111C858.988 244.625 865.908 241.201 872.814 237.746C877.046 235.629 881.295 233.543 885.505 231.381C893.803 227.126 901.037 221.361 907.475 214.416C912.352 209.153 916.395 203.336 919.151 196.559C920.799 192.503 922.583 188.507 924.177 184.428C930.861 167.309 941.128 152.884 953.857 140.253C976.023 118.265 1001.85 103.179 1031.17 94.6457C1038.82 92.4199 1046.61 91.2769 1054.54 90.9978C1057.98 90.8756 1061.41 90.3102 1064.86 90.0606C1068.29 89.809 1071.75 89.7621 1075.2 89.5105C1078.91 89.2457 1081.14 91.551 1083.11 94.3421C1084.1 95.7367 1083.7 98.2335 1082.17 99.1584C1080.26 100.309 1078.23 101.243 1076.18 102.092C1070.67 104.371 1065.01 106.283 1059.63 108.831C1039.62 118.3 1021.93 131.346 1006.19 147.416C995.169 158.673 987.209 171.888 982.425 187.242C978.89 198.581 975.549 209.995 971.675 221.204C966.074 237.415 957.937 252.261 948.201 266.084C937.582 281.164 923.845 292.585 908.227 301.336C899.299 306.335 893.915 313.647 891.172 323.63C888.342 333.927 887.041 344.429 886.921 355.111C886.854 361.085 886.895 367.059 886.819 373.028C886.773 376.403 886.622 379.774 886.455 383.146C886.152 389.215 884.473 394.818 881.562 400.093C874.076 413.667 865.023 425.94 854.075 436.59C845.735 444.706 836.918 452.252 827.43 458.851C823.322 461.706 818.92 464.091 814.714 466.801C813.273 467.73 811.949 468.91 810.758 470.173C810.395 470.558 810.429 471.713 810.698 472.304C810.969 472.895 811.744 473.562 812.325 473.592C813.516 473.648 814.846 473.584 815.899 473.071C819.69 471.214 823.541 469.409 827.089 467.108C838.471 459.723 848.753 450.801 858.667 441.4C859.767 440.357 860.839 439.28 861.879 438.171C863.199 436.765 864.8 436.397 866.611 436.497C871.744 436.781 876.222 438.709 879.972 442.401C884.196 446.558 887.206 451.542 889.082 457.314C892.199 466.883 892.447 476.658 890.889 486.519C888.774 499.951 884.088 512.486 878.634 524.75C870.319 543.433 859.412 560.402 847.548 576.723C842.453 583.732 837.121 590.552 831.891 597.46C827.869 602.773 823.113 607.303 818.098 611.53C808.077 619.98 797.723 627.941 786.59 634.732C783.816 636.425 781.149 638.307 778.473 640.168C777.665 640.728 776.853 641.408 776.317 642.231C775.967 642.766 775.824 643.816 776.102 644.341C776.396 644.905 777.314 645.482 777.908 645.429C779.355 645.297 780.876 645.04 782.18 644.405C785.532 642.773 788.955 641.185 792.041 639.083C799.696 633.859 807.551 628.842 814.607 622.808C819.91 618.268 825.343 618.014 831.237 619.354C839.309 621.185 843.733 627.67 843.291 636.442C843.039 641.448 841.408 646.068 839.383 650.548C834.887 660.475 828.78 669.276 822.007 677.562C817.018 683.662 811.801 689.556 806.555 695.415C801.985 700.515 797.142 705.348 792.605 710.483C790.578 712.776 787.461 714.308 787.187 718.026C790.31 718.557 792.856 716.742 795.572 715.696C803.043 712.825 809.924 708.72 816.284 703.772C825.21 696.828 833.928 689.581 842.747 682.486C852.76 674.436 863.044 666.811 874.528 661.196C878.101 659.448 881.747 657.837 885.457 656.454C887.997 655.507 890.677 654.74 893.348 654.478C898.253 653.998 902.578 655.233 905.573 659.958C907.819 663.504 907.978 663.387 910.346 659.825C915.365 652.259 918.648 643.91 920.237 634.863C921.85 625.683 923.219 616.457 924.837 607.276C928.015 589.253 934.099 572.316 942.539 556.321C945.411 550.877 948.574 545.599 951.724 540.324C965.144 517.848 983.151 500.394 1005.09 487.494C1017.78 480.026 1030.81 473.167 1043.73 466.127C1058.62 458.013 1073.67 450.197 1088.46 441.88C1104.39 432.923 1119.26 422.235 1133.06 409.946C1135.49 407.773 1137.73 405.345 1140.03 403.018C1140.2 402.857 1140.37 402.506 1140.31 402.356C1140.23 402.171 1139.91 402.01 1139.68 401.998C1139.2 401.967 1138.7 401.963 1138.22 402.082C1131.89 403.694 1125.48 403.226 1119.07 402.944C1118.33 402.91 1117.59 402.837 1116.86 402.701C1103.28 400.164 1097.27 389.703 1098.36 377.928C1098.85 372.711 1100.28 367.78 1102.33 363.011C1106.69 352.873 1113.53 344.737 1121.07 337.168C1129.14 329.071 1138.04 322.087 1147.41 315.787C1157.6 308.938 1167.98 302.394 1178.09 295.43C1186.14 289.894 1194.12 284.197 1201.77 278.07C1210.83 270.811 1219.01 262.523 1225.47 252.527C1227.85 248.844 1229.73 244.949 1230.78 240.614C1237.14 214.614 1250.01 192.413 1266.89 172.623C1279.49 157.858 1293.94 145.345 1309.48 134.134C1324.96 122.95 1341.39 113.422 1357.8 103.873C1372.26 95.4606 1386.83 87.2022 1400.96 78.2124C1416.88 68.0867 1431.12 55.6649 1443.32 40.7881C1449.15 33.6849 1454.25 26.0377 1458.47 17.7793C1460.19 14.4074 1461.96 11.0152 1460.91 6.75918C1460.3 4.31537 1462.04 2.35645 1463.65 0.704156C1464.99 -0.675135 1468 0.0919383 1468.69 1.96325C1469.03 2.91266 1469.3 3.9517 1469.33 4.96529C1469.52 9.63491 1469.64 14.3066 1469.74 18.9772C1469.93 28.6995 1468.01 38.0367 1465.22 47.2456C1459.87 64.937 1451.91 81.2867 1442.47 96.897C1433.83 111.176 1423.87 124.373 1413.13 136.951C1397.78 154.94 1381.14 171.585 1364.47 188.204C1358.21 194.453 1352.14 200.912 1346.11 207.428C1335.9 218.497 1329.69 231.953 1325.68 246.623C1324.04 252.602 1322.62 258.65 1321.22 264.697C1315.84 287.889 1305 308.01 1290.41 326.104C1281.1 337.642 1270.84 348.047 1259.23 357.012C1255.61 359.814 1251.76 361.954 1247.37 363.134C1235.68 366.28 1224.06 369.829 1211.98 371.064C1210.55 371.21 1209.13 371.864 1207.82 372.543C1207.31 372.809 1206.85 373.791 1206.87 374.425C1206.9 375.071 1207.42 376.01 1207.95 376.263C1209.03 376.771 1210.27 377.053 1211.47 377.158C1217.46 377.687 1223.25 376.225 1229.04 374.949C1233.62 373.941 1238.13 372.619 1242.67 371.371C1244.72 370.808 1246.49 371.14 1248.25 372.435C1258.37 379.864 1264.19 389.99 1265.43 402.884C1266.78 416.887 1264.54 430.28 1258.77 443.02C1252.86 456.067 1244.61 467.335 1235.11 477.646C1226.84 486.621 1217.7 494.541 1208.1 501.885C1193.69 512.905 1178.35 522.307 1162.55 530.891C1152.02 536.605 1141.45 542.202 1131.01 548.092C1117.47 555.744 1104.81 564.748 1094.12 576.506C1090.9 580.063 1087.95 583.927 1085.03 587.77C1084.31 588.706 1084.17 590.115 1083.76 591.31C1083.57 591.453 1083.38 591.596 1083.19 591.74C1083.34 591.49 1083.48 591.285 1083.6 591.076Z" fill="#CEFD3B"/>
</svg>
